<svg width="382" height="253" viewBox="0 0 382 253" fill="none" xmlns="http://www.w3.org/2000/svg">
<path d="M96.9 34.6C93.5 40.1 93.1 51 96 57.7C98.8 64.3 103.4 68.9 105.8 67.4C108.4 65.7 111.9 58.7 112.6 53.7C113.4 47.9 111 40 106.8 34.8C102.9 29.8 99.9 29.8 96.9 34.6Z" fill="black"/>
<path d="M275.7 34.2C271 40.5 269.6 44.2 269.6 51C269.6 56.1 270.1 58.5 272 61.9C276 69 277.5 69.3 282.1 64.1C288.8 56.6 290.4 45.1 285.8 36.2C282.6 30 279.3 29.4 275.7 34.2Z" fill="black"/>
<path d="M139.3 43C134.1 46 131.8 48.6 128.5 55C124.4 62.8 127.2 80.6 134.1 91.5C135.7 94.1 136.9 96.4 136.7 96.7C136 97.3 126.4 91.4 119.9 86.4C116.8 84 111.4 79 108 75.3L101.8 68.5L104.6 74C110.1 84.5 124.6 97.2 140.5 105.3C146.2 108.2 150.8 112.1 165.5 126.7C184.8 145.7 191.2 152.9 198.9 164.3C211.4 182.9 219.6 206.2 221.5 228.8L222.2 237H215.7H209.3L208.1 229.3C206.2 217.6 201.4 201.5 197 192.5C192 182.2 186.1 174.8 176.9 167.4C168.7 160.7 166.5 157.5 161.8 145C159.2 138.1 157.5 135.4 153 131C148.1 126 140 121 136.9 121C136.3 121 138 122.7 140.8 124.7C149.1 131.1 151.1 134 157 148.6L160.6 157.6L144.9 152.4C136.3 149.5 126.7 145.9 123.6 144.4C118.1 141.7 117.9 141.5 118.7 138.6C119.1 136.9 119.5 132.1 119.5 128C119.4 119.6 117.2 114.1 111.7 108.2C107.5 103.8 105.3 104 103 109.2C100.1 115.5 100.3 126 103.4 132.5C107.5 141.3 119.5 150.2 132.8 154.1C139.7 156.1 137.9 157.4 128.8 156.7C119.1 156 110.6 153.4 99.5 147.7C89.1 142.3 88.8 142.2 93.5 146.5C99 151.6 107.6 156.4 116.5 159.6C123.3 162 124.8 162.2 133.7 161.6C139.1 161.3 145.2 160.8 147.2 160.4C154.9 159.1 176.2 171.8 184.5 182.6L187.9 187.2L184.9 193.3C179.7 203.6 176.4 214.4 174 229.3L172.7 237H166.2H159.8L160.5 229.2C161.9 213.7 165.9 198 172 184.4C174.9 178 175 177.5 173.4 176.3C172.4 175.6 171.3 175 171 175C170 175 164.4 187.5 161.7 196.1C158.4 206.1 155.9 218.7 155.1 228.5L154.5 236.5L143.5 237C133.1 237.5 132.5 237.6 132.2 239.7C132 241.3 132.5 242.1 134.2 242.5C135.5 242.8 161.9 242.9 193 242.8L249.5 242.5V240C249.5 237.5 249.5 237.5 239 237.2C232.2 237 228.3 236.5 227.8 235.7C227.4 235 227 232.2 227 229.3C227 218.5 221.1 195.1 215.1 181.7C211.5 173.7 202.3 158.9 196.3 151.3C193.8 148.1 187.1 140.8 181.4 135C170.4 123.8 168.5 120.4 166 107.8C165 102.8 165.1 101.1 166.9 94.5C169 86.9 169.8 73.6 168.1 72.6C167.6 72.3 167 74.2 166.8 76.8C166.5 79.4 165 84.4 163.4 88C160.8 93.8 160.5 95.5 160.6 104.4V114.3L152.8 106.2C144.3 97.4 136.3 85.9 135.4 81.1C134.9 78.6 135.2 78 137.8 76.6C142.2 74.3 148.6 66.5 150.4 61.3C152 56.7 152.6 44.7 151.4 41.6C150.4 39.1 145.1 39.7 139.3 43Z" fill="black"/>
<path d="M231 41.9C230.5 43 230 46.9 230 50.7C230 56.1 230.6 58.7 232.9 63.6C235.5 69.2 237.6 71.4 245.8 77.7L248.1 79.5L245.1 85.4C241.2 92.9 235.9 99.8 227.1 108.4L220.1 115.3L221.2 110.9C222.8 104 221.6 94.4 218.4 87.5C216.9 84.2 215.4 79.1 215.2 76C214.8 72 214.5 71 213.9 72.5C212.4 76.3 213 87 215.1 94.5C216.9 101.1 217 102.8 216 107.8C213.6 120 211.4 124 202.3 133.1C194.6 140.9 193.9 142 194.9 143.9C195.6 145 196.3 146 196.6 146C196.9 146 205.6 137.6 216 127.4C232.9 110.6 235.7 108.3 243.9 104C259.3 95.8 271.4 85 277.4 74.1C279.9 69.4 279.7 69.5 270.2 78.9C264.4 84.6 257.5 90.2 253.2 92.7C249.2 95.1 245.7 97 245.4 97C245.1 97 246.2 94.6 247.9 91.6C251.9 84.7 253.9 78.9 255.1 71.5C256.3 63.4 255.4 58 251.6 51.8C246.4 43 233.7 36.9 231 41.9Z" fill="black"/>
<path d="M269.6 109.2C264.2 115.5 261.7 123 262.3 131C262.6 134.6 263.2 138.4 263.5 139.6C264 141.3 263.2 142.1 258.3 144.5C255.1 146 246.2 149.4 238.5 152C230.8 154.6 223.7 157.1 222.8 157.5C221.5 158 221.9 156.1 224.9 148.2C229.5 136.2 233.4 130.5 240.7 125.1C243.8 122.8 245.7 121 245.1 121C242 121 233.9 126 228.9 131C224.3 135.6 222.8 138.1 219.6 146.2C217.6 151.5 214.6 157.7 213 159.9C209.6 164.6 209.4 165.3 211.5 167C212.8 168.1 214.6 167.5 222.1 164C229.6 160.6 231.9 159.9 234.9 160.4C236.9 160.8 242.8 161.3 248.2 161.6C255.8 162.1 258.9 161.9 263.2 160.5C271.3 157.8 283 151.5 288 147C293.3 142.2 293.5 142.1 280 148.7C268.9 154.1 258.4 157 250.1 157C244.4 157 243.3 155.5 248.2 154.4C254.8 153 266 147 271.1 142.3C278.1 135.8 281 129.5 281 120.5C281 112.1 278.3 105 275.1 105C274 105 271.5 106.9 269.6 109.2Z" fill="black" stroke="black"/>
<path d="M59.5 120C56.8 120.5 56.5 120.9 56.7 123.9C56.9 128.5 61.8 135.9 66.8 139.3C74.5 144.5 88 145.1 88 140.3C88 139.3 86.9 136.2 85.6 133.4C81.2 123.9 69.6 118 59.5 120Z" fill="black"/>
<path d="M314.4 119.9C305.5 121.4 296.3 129.7 294.5 138.2C293.5 142.4 295.1 143.5 301.8 143.4C308.5 143.2 313.3 141.4 318.2 137.1C323.9 132.2 328 121.6 324.8 120.6C321.5 119.6 318.2 119.4 314.4 119.9Z" fill="black"/>
<path d="M93.5 164.6C88.3 166.4 82.9 170.9 80.5 175.3C78.1 179.9 79.3 181.5 86.6 183C93.3 184.4 99 183.4 105.5 179.6C111 176.3 115.9 169.6 114.4 167.2C111.9 163.4 100.9 162 93.5 164.6Z" fill="black"/>
<path d="M272.1 164.4C266.7 166.3 266.1 168.2 269.5 172.7C276.3 181.6 285.1 185.2 295.5 183C302.3 181.6 303.7 180.1 302 176C298.1 166.5 282.6 160.6 272.1 164.4Z" fill="black"/>
<path d="M192.75 223.75H199V230H192.75V223.75Z" fill="#C4C4C4"/>
<rect x="184" y="223.75" width="6.25" height="6.25" fill="#C4C4C4"/>
<rect x="192.75" y="215" width="6.25" height="6.25" fill="#C4C4C4"/>
<rect x="184" y="215" width="6.25" height="6.25" fill="#C4C4C4"/>
</svg>
